<?xml version="1.0" encoding="utf-8"?>
<!-- Generator: Adobe Illustrator 15.0.2, SVG Export Plug-In . SVG Version: 6.00 Build 0)  -->
<!DOCTYPE svg PUBLIC "-//W3C//DTD SVG 1.1//EN" "http://www.w3.org/Graphics/SVG/1.1/DTD/svg11.dtd">
<svg version="1.1" id="Layer_1" xmlns="http://www.w3.org/2000/svg" xmlns:xlink="http://www.w3.org/1999/xlink" x="0px" y="0px"
	 width="737.008px" height="737.008px" viewBox="0 0 737.008 737.008" enable-background="new 0 0 737.008 737.008"
	 xml:space="preserve">
<rect y="0" fill="#FFC1B0" width="737.008" height="737.008"/>
<g>
	<path fill="#FF6633" d="M372.137,576.336c26.895-42.514,157.49-226.703,364.871-163.681V-0.417H0v407.524
		C223.104,336.739,358.171,552.759,372.137,576.336z M373.396,57.804c97.715,0,176.895,82.541,176.895,184.351
		c0,101.815-79.18,184.356-176.895,184.356c-97.676,0-176.869-82.541-176.869-184.356
		C196.527,140.345,275.721,57.804,373.396,57.804z"/>
	<path fill="#FF6633" d="M642.018,737.007h94.99v-74.256C725.857,663.67,686.697,671.904,642.018,737.007z"/>
	<path fill="#FF6633" d="M0,656.157v80.851h102.632C47.865,653.167,0,656.157,0,656.157z"/>
</g>
<path display="none" fill="#FF6633" d="M406.129,414.587c0,6.627-5.373,12-12,12h-51c-6.627,0-12-5.373-12-12v-52
	c0-6.627,5.373-12,12-12h51c6.627,0,12,5.373,12,12V414.587z"/>
</svg>
